<svg height="496pt" viewBox="0 0 496 496" width="496pt" xmlns="http://www.w3.org/2000/svg"><path d="m293.28125 277.105469-13.28125-53.105469h-64l-13.28125 53.105469zm0 0" fill="#dcb29c"/><path d="m216 224-13.28125 53.105469h69.28125l-13.28125-53.105469zm0 0" fill="#f3c6b0"/><path d="m56 304v-72l192 32v224l-192-32v-88" fill="#5789d6"/><path d="m56 304v152l160 26.664062v-218.664062l-160-26.664062zm0 0" fill="#699ce6"/><path d="m440 304v-72l-192 32v224l192-32v-88" fill="#5789d6"/><path d="m416 456v-220l-168 28v220zm0 0" fill="#699ce6"/><path d="m104 320 112 16v-40l-112-16zm0 0" fill="#efedee"/><path d="m392 320-112 16v-40l112-16zm0 0" fill="#efedee"/><path d="m32 376h-24v-80h24c22.089844 0 40 17.910156 40 40s-17.910156 40-40 40zm0 0" fill="#dcb29c"/><path d="m464 376h24v-80h-24c-22.089844 0-40 17.910156-40 40s17.910156 40 40 40zm0 0" fill="#dcb29c"/><path d="m48 336c0-22.089844-17.910156-40-40-40v80c22.089844 0 40-17.910156 40-40zm0 0" fill="#f3c6b0"/><path d="m424 336c0 22.089844 17.910156 40 40 40v-80c-22.089844 0-40 17.910156-40 40zm0 0" fill="#f3c6b0"/><path d="m168 120h-32v16c0 17.671875 14.328125 32 32 32" fill="#dcb29c"/><path d="m328 120h32v16c0 17.671875-14.328125 32-32 32" fill="#f3c6b0"/><path d="m168 88v64c0 44.183594 35.816406 80 80 80s80-35.816406 80-80v-64" fill="#dcb29c"/><path d="m236 231c38.472656-5.800781 68-38.902344 68-79v-64h-136v64c0 40.097656 29.527344 73.199219 68 79zm0 0" fill="#f3c6b0"/><path d="m168 88v-32c0-26.511719 21.488281-48 48-48h144v32c0 26.511719-21.488281 48-48 48zm0 0" fill="#7e4e4d"/><path d="m328 40v-32h-112c-26.511719 0-48 21.488281-48 48v32h112c26.511719 0 48-21.488281 48-48zm0 0" fill="#8d5655"/><path d="m248 240c-48.519531 0-88-39.480469-88-88v-64h16v64c0 39.703125 32.304688 72 72 72s72-32.296875 72-72v-64h16v64c0 48.519531-39.480469 88-88 88zm0 0"/><path d="m312 96h-144c-4.414062 0-8-3.574219-8-8v-32c0-30.871094 25.121094-56 56-56h144c4.414062 0 8 3.574219 8 8v32c0 30.871094-25.121094 56-56 56zm-136-16h136c22.054688 0 40-17.945312 40-40v-24h-136c-22.054688 0-40 17.945312-40 40zm0 0"/><path d="m208 64h-16v-8c0-13.230469 10.769531-24 24-24h104v16h-104c-4.40625 0-8 3.585938-8 8zm0 0"/><path d="m248 496c-.441406 0-.878906-.039062-1.320312-.113281l-192-32c-3.847657-.640625-6.679688-3.976563-6.679688-7.886719v-88h16v81.222656l176 29.328125v-207.773437l-176-29.328125v62.550781h-16v-72c0-2.351562 1.03125-4.585938 2.832031-6.105469 1.792969-1.519531 4.160157-2.167969 6.488281-1.789062l192 32c3.847657.648437 6.679688 3.984375 6.679688 7.894531v224c0 2.351562-1.03125 4.585938-2.832031 6.105469-1.457031 1.230469-3.289063 1.894531-5.167969 1.894531zm0 0"/><path d="m248 496c-1.878906 0-3.710938-.664062-5.167969-1.894531-1.800781-1.519531-2.832031-3.753907-2.832031-6.105469v-224c0-3.910156 2.832031-7.246094 6.679688-7.886719l192-32c2.304687-.378906 4.6875.261719 6.488281 1.789063 1.800781 1.511718 2.832031 3.746094 2.832031 6.097656v72h-16v-62.550781l-176 29.328125v207.78125l176-29.328125v-81.230469h16v88c0 3.910156-2.832031 7.246094-6.679688 7.886719l-192 32c-.441406.074219-.878906.113281-1.320312.113281zm0 0"/><path d="m216 344c-.375 0-.753906-.023438-1.136719-.078125l-112-16c-3.933593-.5625-6.863281-3.9375-6.863281-7.921875v-40c0-2.320312 1.007812-4.519531 2.761719-6.046875 1.75-1.503906 4.0625-2.210937 6.375-1.875l112 16c3.933593.5625 6.863281 3.9375 6.863281 7.921875v40c0 2.320312-1.007812 4.519531-2.761719 6.046875-1.460937 1.265625-3.328125 1.953125-5.238281 1.953125zm-104-30.9375 96 13.714844v-23.832032l-96-13.714843zm0 0"/><path d="m102.851562 359.921875 2.261719-15.847656 111.992188 16-2.261719 15.84375zm0 0"/><path d="m102.847656 391.921875 2.265625-15.847656 111.992188 15.996093-2.261719 15.847657zm0 0"/><path d="m102.847656 423.917969 2.261719-15.84375 111.996094 15.996093-2.265625 15.847657zm0 0"/><path d="m32 384h-24c-4.414062 0-8-3.574219-8-8v-80c0-4.425781 3.585938-8 8-8h24c26.472656 0 48 21.527344 48 48s-21.527344 48-48 48zm-16-16h16c17.648438 0 32-14.351562 32-32s-14.351562-32-32-32h-16zm0 0"/><path d="m280 344c-1.910156 0-3.777344-.6875-5.238281-1.953125-1.753907-1.527344-2.761719-3.726563-2.761719-6.046875v-40c0-3.984375 2.929688-7.359375 6.863281-7.921875l112-16c2.3125-.335937 4.625.371094 6.375 1.875 1.753907 1.527344 2.761719 3.726563 2.761719 6.046875v40c0 3.984375-2.929688 7.359375-6.863281 7.921875l-112 16c-.382813.054687-.761719.078125-1.136719.078125zm8-41.0625v23.832031l96-13.714843v-23.832032zm0 0"/><path d="m278.875 360.066406 111.992188-16.019531 2.269531 15.84375-111.996094 16.019531zm0 0"/><path d="m278.875 392.0625 111.996094-16.019531 2.265625 15.847656-111.992188 16.019531zm0 0"/><path d="m278.878906 424.0625 111.992188-16.019531 2.265625 15.847656-111.992188 16.019531zm0 0"/><path d="m488 384h-24c-26.472656 0-48-21.527344-48-48s21.527344-48 48-48h24c4.414062 0 8 3.574219 8 8v80c0 4.425781-3.585938 8-8 8zm-24-80c-17.648438 0-32 14.351562-32 32s14.351562 32 32 32h16v-64zm0 0"/><path d="m200.238281 254.074219 7.988281-32 15.523438 3.875-7.988281 32zm0 0"/><path d="m272.21875 225.9375 15.519531-3.878906 8 31.996094-15.523437 3.878906zm0 0"/><path d="m248 208c-30.878906 0-56-25.128906-56-56h16c0 22.054688 17.945312 40 40 40s40-17.945312 40-40h16c0 30.871094-25.121094 56-56 56zm0 0"/><path d="m220 136c-6.617188 0-12-5.382812-12-12s5.382812-12 12-12 12 5.382812 12 12-5.382812 12-12 12zm0-16c-2.207031 0-4 1.800781-4 4s1.792969 4 4 4 4-1.800781 4-4-1.792969-4-4-4zm0 0"/><path d="m276 136c-6.617188 0-12-5.382812-12-12s5.382812-12 12-12 12 5.382812 12 12-5.382812 12-12 12zm0-16c-2.207031 0-4 1.800781-4 4s1.792969 4 4 4 4-1.800781 4-4-1.792969-4-4-4zm0 0"/><path d="m168 176c-22.054688 0-40-17.945312-40-40v-16c0-4.425781 3.585938-8 8-8h32v16h-24v8c0 13.230469 10.769531 24 24 24zm0 0"/><path d="m328 176v-16c13.230469 0 24-10.769531 24-24v-8h-24v-16h32c4.414062 0 8 3.574219 8 8v16c0 22.054688-17.945312 40-40 40zm0 0"/></svg>